HIERARCHY
ROOT root
{
	OFFSET 0.000000 0.000000 0.000000
	CHANNELS 6 Xposition Yposition Zposition Zrotation Yrotation Xrotation
	JOINT lhip
	{
		OFFSET 0.058581 -0.082280 -0.017664
		CHANNELS 3 Zrotation Yrotation Xrotation
		JOINT lknee
		{
			OFFSET 0.043451 -0.386469 0.008037
			CHANNELS 3 Zrotation Yrotation Xrotation
			JOINT lankle
			{
				OFFSET -0.014790 -0.426874 -0.037428
				CHANNELS 3 Zrotation Yrotation Xrotation
				JOINT ltoe
				{
					OFFSET 0.041054 -0.060286 0.122042
					CHANNELS 3 Zrotation Yrotation Xrotation
					End Site
					{
						OFFSET 0.000000 0.000000 0.000000
					}
				}
			}
		}
	}
	JOINT rhip
	{
		OFFSET -0.060310 -0.090513 -0.013543
		CHANNELS 3 Zrotation Yrotation Xrotation
		JOINT rknee
		{
			OFFSET -0.043257 -0.383688 -0.004843
			CHANNELS 3 Zrotation Yrotation Xrotation
			JOINT rankle
			{
				OFFSET 0.019056 -0.420046 -0.034562
				CHANNELS 3 Zrotation Yrotation Xrotation
				JOINT rtoe
				{
					OFFSET -0.034840 -0.062106 0.130323
					CHANNELS 3 Zrotation Yrotation Xrotation
					End Site
					{
						OFFSET 0.000000 0.000000 0.000000
					}
				}
			}
		}
	}
	JOINT lowerback
	{
		OFFSET 0.004439 0.124404 -0.038385
		CHANNELS 3 Zrotation Yrotation Xrotation
		JOINT upperback
		{
			OFFSET 0.004488 0.137956 0.026820
			CHANNELS 3 Zrotation Yrotation Xrotation
			JOINT chest
			{
				OFFSET -0.002265 0.056032 0.002855
				CHANNELS 3 Zrotation Yrotation Xrotation
				JOINT lowerneck
				{
					OFFSET -0.013390 0.211636 -0.033468
					CHANNELS 3 Zrotation Yrotation Xrotation
					JOINT upperneck
					{
						OFFSET 0.010113 0.088937 0.050410
						CHANNELS 3 Zrotation Yrotation Xrotation
						End Site
						{
							OFFSET 0.000000 0.000000 0.000000
						}
					}
				}
				JOINT lclavicle
				{
					OFFSET 0.071702 0.114000 -0.018898
					CHANNELS 3 Zrotation Yrotation Xrotation
					JOINT lshoulder
					{
						OFFSET 0.122921 0.045205 -0.019046
						CHANNELS 3 Zrotation Yrotation Xrotation
						JOINT lelbow
						{
							OFFSET 0.255332 -0.015649 -0.022946
							CHANNELS 3 Zrotation Yrotation Xrotation
							JOINT lwrist
							{
								OFFSET 0.265709 0.012698 -0.007375
								CHANNELS 3 Zrotation Yrotation Xrotation
								End Site
								{
									OFFSET 0.000000 0.000000 0.000000
								}
							}
						}
					}
				}
				JOINT rclavicle
				{
					OFFSET -0.082954 0.112472 -0.023707
					CHANNELS 3 Zrotation Yrotation Xrotation
					JOINT rshoulder
					{
						OFFSET -0.113228 0.046853 -0.008472
						CHANNELS 3 Zrotation Yrotation Xrotation
						JOINT relbow
						{
							OFFSET -0.260127 -0.014369 -0.031269
							CHANNELS 3 Zrotation Yrotation Xrotation
							JOINT rwrist
							{
								OFFSET -0.269108 0.006794 -0.006027
								CHANNELS 3 Zrotation Yrotation Xrotation
								End Site
								{
									OFFSET 0.000000 0.000000 0.000000
								}
							}
						}
					}
				}
			}
		}
	}
}
MOTION
Frames: 10
Frame Time: 0.033333
0.067290 -1.494601 1.007513 179.275328 1.536354 87.448475 1.120850 5.304621 8.589097 -1.185467 -5.854624 -4.854686 1.526381 10.507689 -8.606846 0.000000 -0.000000 0.000000 -0.363860 -3.740396 -2.456284 1.332002 -6.851089 11.965343 1.946380 -7.617381 -13.092438 0.000000 -0.000000 0.000000 -0.928607 0.315667 5.131327 0.906020 -0.132149 8.793441 0.771929 -0.006118 -2.960116 -0.916119 -2.239007 5.030122 1.233490 -0.709083 7.912062 -29.183322 2.504899 3.036365 -52.525909 -1.877746 14.559523 13.686064 -24.033702 0.742124 0.430969 -11.389512 -1.165606 24.203082 6.098558 2.325132 50.890701 3.182314 9.557904 -9.730757 15.296677 -19.561894 1.767992 13.856679 -22.734836 
0.066109 -1.498375 1.006748 179.115633 2.331982 88.447672 1.610802 5.275792 7.603885 -0.940450 -5.758822 -5.514503 2.017196 10.845712 -8.262158 0.000000 -0.000000 0.000000 -0.423461 -4.132719 -6.676993 1.979561 -7.447275 17.268068 2.389319 -7.101210 -13.302331 0.000000 -0.000000 0.000000 -0.557685 0.066551 4.654732 1.001847 -0.473605 9.025460 0.341059 -0.382744 -3.358995 -0.928942 -1.239268 4.696840 1.297048 -0.232050 7.565509 -28.539060 2.316740 2.311454 -53.019827 -1.456349 14.714739 13.091405 -25.596634 -0.174584 -2.679677 -11.340629 -0.430852 24.482476 6.387640 2.097292 50.831434 2.954712 9.929796 -9.878227 16.728694 -19.120727 3.591278 13.910437 -20.882408 
0.066851 -1.501763 1.006667 179.470309 3.105835 89.306733 2.504425 5.244505 6.512697 -0.959710 -5.647803 -5.591536 2.050771 10.768242 -7.793220 0.000000 -0.000000 0.000000 -0.659350 -3.817975 -10.281529 2.690469 -8.806963 22.042739 2.919303 -6.503071 -12.917304 0.000000 -0.000000 0.000000 -0.694553 -0.426190 4.229981 1.475325 -1.029896 9.259377 0.228447 -0.770502 -3.785199 -0.817837 0.281296 4.979153 1.135090 -0.255871 6.784408 -28.275549 1.710837 2.068473 -53.282849 -1.484852 13.905703 10.627995 -25.979747 -3.860578 -3.934548 -10.577885 -3.507484 25.065046 6.791063 2.017291 50.440160 2.961852 10.007687 -9.879101 17.522175 -19.373681 4.703388 14.191634 -19.196079 
0.066563 -1.502237 1.006917 178.098072 3.907570 89.006618 3.496571 5.562599 7.604602 -1.312110 -4.604589 -6.739217 2.492709 10.476564 -7.426379 0.000000 -0.000000 0.000000 -2.047839 -3.568984 -13.117650 4.276308 -9.112700 27.921161 4.654953 -4.765304 -13.322722 0.000000 -0.000000 0.000000 -0.007405 -0.748679 4.702918 1.452392 -0.628450 8.885097 -0.255664 -0.789508 -3.734303 -0.675765 1.760790 5.299178 0.422775 0.020255 6.405405 -27.758211 1.023081 1.545247 -53.971592 -1.773581 13.209983 9.733044 -26.141847 -6.705040 0.143534 -10.670760 -5.366596 25.279946 6.868850 2.293830 50.664711 3.210928 10.321883 -9.816844 18.486667 -19.504322 4.002851 14.286966 -18.376614 
0.066946 -1.501803 1.006823 177.755619 4.113187 88.958861 3.800604 5.752805 7.752798 -1.413202 -4.566291 -6.848357 2.545771 10.562728 -7.602128 0.000000 -0.000000 0.000000 -2.474286 -3.557635 -13.682914 4.603855 -8.924174 29.170173 4.897648 -4.234778 -13.682841 0.000000 -0.000000 0.000000 0.154697 -0.796722 4.873900 1.487732 -0.545073 8.543067 -0.289208 -0.828226 -3.645780 -0.750709 1.998303 5.206298 0.228495 0.189466 6.495481 -27.734794 0.979759 1.484445 -54.039493 -1.914547 13.096509 9.933519 -26.305951 -6.643954 0.351130 -10.636610 -5.458924 25.223598 6.731534 2.310667 50.757479 3.253013 10.352839 -9.806669 18.654080 -19.287071 4.127166 14.259896 -18.585998 
0.071871 -1.500617 1.008222 176.181151 3.679985 88.666960 3.906847 6.513718 8.575055 -1.911190 -4.816049 -7.364945 2.420679 11.385651 -8.143799 0.000000 -0.000000 0.000000 -3.457092 -2.659283 -13.778668 4.050460 -8.337207 29.813635 5.321370 -4.188136 -14.685996 0.000000 -0.000000 0.000000 -1.562529 -1.620266 4.485102 1.355131 0.981073 7.779085 0.515855 -0.462775 -2.690500 -0.603813 2.758535 4.475365 0.360987 0.455382 7.647953 -26.414757 0.707771 1.924954 -55.364444 -2.616810 12.296439 8.763822 -26.254047 -7.121699 3.454363 -11.360386 -9.430860 25.060782 6.801479 2.843431 51.792939 3.814895 10.434450 -9.755038 18.390344 -18.810620 2.732203 14.607245 -19.868107 
0.073517 -1.500102 1.009925 176.454560 3.446423 88.358332 3.702756 6.629608 8.553357 -1.736701 -5.072003 -6.662866 2.547059 11.251800 -8.434749 0.000000 -0.000000 0.000000 -4.551078 -3.010736 -12.790432 2.928507 -8.728529 28.185988 4.646867 -6.091845 -15.022467 0.000000 -0.000000 0.000000 -2.125239 -0.973436 4.717704 1.703099 0.248364 7.590091 0.846970 -0.617202 -2.933560 -0.795151 2.440759 4.478803 0.138878 0.916133 7.775699 -26.885209 0.858494 1.930689 -55.036660 -3.601892 13.213402 8.843478 -26.004580 -7.816840 4.577167 -12.366096 -9.036718 25.198812 6.425062 2.706896 51.651410 3.633006 10.852249 -9.821640 18.114715 -19.472124 2.115064 14.484108 -19.853713 
0.075031 -1.495731 1.008479 176.652696 4.403098 88.749721 4.587580 5.897741 8.428560 -1.446490 -4.617575 -6.721198 2.486493 11.318311 -8.216855 0.000000 -0.000000 0.000000 -4.258977 -3.662370 -11.810223 1.513610 -8.922090 25.010407 4.257125 -6.759757 -15.266288 0.000000 -0.000000 0.000000 0.023798 -2.220804 3.626218 1.288604 0.553451 7.045037 0.194433 -0.595027 -2.664227 -0.576756 3.575438 4.938138 0.008192 0.757429 7.700823 -26.429069 1.348807 1.552305 -55.439198 -3.338591 12.853709 8.526663 -26.268949 -6.934342 4.393040 -13.181999 -9.607650 25.027180 6.511435 3.194212 52.017731 3.396820 10.551979 -9.945169 17.654477 -19.154476 2.038725 14.568356 -19.654615 
0.079030 -1.493101 1.007668 176.778832 4.406595 89.079311 4.649255 5.724537 8.105205 -1.169402 -4.216740 -6.458325 2.112169 11.235481 -8.357556 0.000000 -0.000000 0.000000 -4.642632 -3.670006 -10.434986 0.830466 -8.139977 20.930960 3.940877 -7.078722 -14.451230 0.000000 -0.000000 0.000000 0.216842 -2.140565 2.821343 1.431336 0.382837 6.915004 0.359157 -0.503243 -2.797520 -0.821033 3.404742 5.104251 -0.183386 1.100778 7.298293 -26.350893 1.459258 1.712181 -55.563854 -3.715783 13.337003 8.703761 -27.276782 -8.101806 4.699441 -12.605203 -10.566272 24.624870 6.073414 3.372548 52.243122 3.291773 10.746358 -9.981423 17.296943 -19.460247 1.885513 14.067094 -19.495309 
0.084376 -1.489926 1.006673 176.914088 4.260073 89.444860 4.611492 5.497202 7.995821 -0.805458 -3.789915 -6.648766 1.767218 11.061438 -8.139348 0.000000 -0.000000 0.000000 -4.886440 -3.311464 -8.865162 0.641544 -6.392299 16.833367 3.813528 -6.205719 -11.661667 0.000000 -0.000000 0.000000 0.280804 -1.894711 1.735140 1.681156 0.116686 7.543640 0.381307 -0.321946 -3.591189 -1.191554 3.132451 5.791273 -0.275421 1.453928 6.511614 -26.519914 1.621034 1.769891 -55.166280 -3.687418 14.564523 8.478320 -27.458443 -8.405776 5.211243 -13.613474 -10.187219 24.610016 5.705223 3.652358 51.991991 3.212888 11.150376 -9.635715 16.420636 -20.103192 1.496364 13.890858 -18.810708 
